<svg width="356" height="477" viewBox="0 0 356 477" fill="none" xmlns="http://www.w3.org/2000/svg">
<rect x="21.5" y="69.5" width="315" height="315" rx="3.5" stroke="#5C6670"/>
<path d="M116.944 17.216V14.504H111.76V11.048H117.904V8.12H108.208V23H111.76V17.216H116.944ZM130.907 23L131.195 20.072H125.003V8.12H121.451V23H130.907ZM144.223 20.096H138.031V16.808H143.119V14.264H138.031V11.024H144.055V8.12H134.503V23H143.959L144.223 20.096ZM154.514 23.072L158.426 22.928L154.418 15.608L158.45 8.12H154.682L152.378 13.064L149.882 8.048L145.994 8.192L150.002 15.56L146.018 23H149.762L152.066 18.128L154.514 23.072ZM183.713 20.12C178.553 20.408 176.993 19.112 176.993 15.296C176.993 12.224 177.809 10.952 183.569 11.24L183.377 7.88C175.889 7.928 173.321 11.552 173.321 15.752C173.321 20.312 175.649 23.816 183.425 23.096L183.713 20.12ZM191.364 23.384C195.132 23.384 197.532 20.48 197.532 15.032C197.532 10.304 195.636 7.736 192.18 7.736C188.412 7.736 186.012 10.64 186.012 16.088C186.012 20.816 187.908 23.384 191.364 23.384ZM191.652 10.616C193.092 10.616 193.884 12.32 193.884 15.824C193.884 19.064 193.332 20.504 191.892 20.504C190.452 20.504 189.66 18.8 189.66 15.296C189.66 12.056 190.212 10.616 191.652 10.616ZM210.079 23L210.367 20.072H204.175V8.12H200.623V23H210.079ZM218.043 23.384C221.355 23.384 223.443 21.128 223.443 17.576V8.12H219.915V18.248C219.915 19.808 219.411 20.36 218.259 20.36C217.131 20.36 216.435 19.616 216.435 17.84V8.12H212.907V17.888C212.907 21.392 214.827 23.384 218.043 23.384ZM233.614 8.12L231.43 15.896H231.334L229.126 8.12H226.006V23H229.126L228.934 14.696H229.03L230.446 19.688H232.15L233.566 14.696H233.662L233.47 23H236.71V8.12H233.614ZM246.905 23H249.761V8.12H246.521L246.665 16.4H246.569L242.441 8.12H239.369V23H242.609L242.465 14.72H242.585L246.905 23Z" fill="white"/>
<rect x="30" y="78" width="298" height="58" rx="3" fill="#2B333B" stroke="#75808A" stroke-width="2"/>
<rect x="30" y="146" width="298" height="58" rx="3" fill="#2B333B" stroke="#75808A" stroke-width="2"/>
<path d="M337 227L21 227" stroke="#60A3F2" stroke-width="3" stroke-linecap="round" stroke-linejoin="round" stroke-dasharray="0.01 5"/>
<path d="M179 69L179 383" stroke="#0E141B" stroke-width="9" stroke-linecap="round" stroke-linejoin="round"/>
<path d="M163 69.5H195" stroke="#FFD500" stroke-width="3" stroke-linecap="round"/>
<path d="M177.939 384.061C178.525 384.646 179.475 384.646 180.061 384.061L189.607 374.515C190.192 373.929 190.192 372.979 189.607 372.393C189.021 371.808 188.071 371.808 187.485 372.393L179 380.879L170.515 372.393C169.929 371.808 168.979 371.808 168.393 372.393C167.808 372.979 167.808 373.929 168.393 374.515L177.939 384.061ZM177.5 69L177.5 383L180.5 383L180.5 69L177.5 69Z" fill="#FFD500"/>
<line x1="55.5" y1="466.5" x2="302.5" y2="466.5" stroke="#60A3F2" stroke-width="3" stroke-linecap="round" stroke-dasharray="0.01 5"/>
<rect x="118" y="455" width="122" height="22" fill="#0E141B"/>
<path d="M136.73 470.308C132.464 470.524 131.258 469.246 131.258 466.312C131.258 463.882 132.032 462.568 136.622 462.658L136.514 460.678C130.97 460.786 129.116 463.468 129.116 466.582C129.116 469.966 130.79 472.54 136.55 472.072L136.73 470.308ZM145.222 472.162L147.436 471.892L144.808 467.068C145.852 466.312 146.626 465.34 146.626 463.936C146.626 461.614 144.898 460.138 139.372 460.858V472H141.406V468.148L143.17 468.112L145.222 472.162ZM141.406 462.424C143.584 462.136 144.592 462.91 144.592 464.386C144.592 465.358 144.106 466.15 143.368 466.654L141.406 466.708V462.424ZM152.509 472.288C155.245 472.288 156.991 470.11 156.991 466.096C156.973 462.532 155.551 460.552 153.013 460.552C150.277 460.552 148.531 462.73 148.531 466.744C148.531 470.308 149.971 472.288 152.509 472.288ZM152.689 462.262C154.093 462.262 154.849 463.702 154.849 466.564C154.849 469.264 154.201 470.578 152.833 470.578C151.429 470.578 150.673 469.138 150.673 466.276C150.673 463.576 151.321 462.262 152.689 462.262ZM159.147 470.272V472.126C164.529 472.342 166.455 470.488 166.455 468.724C166.455 466.06 161.253 465.322 161.253 463.648C161.253 462.838 162.153 462.352 165.771 462.604L165.663 460.75C161.019 460.498 159.111 462.262 159.111 463.936C159.111 466.51 164.313 467.158 164.313 468.976C164.313 469.912 162.945 470.56 159.147 470.272ZM169.044 470.272V472.126C174.426 472.342 176.352 470.488 176.352 468.724C176.352 466.06 171.15 465.322 171.15 463.648C171.15 462.838 172.05 462.352 175.668 462.604L175.56 460.75C170.916 460.498 169.008 462.262 169.008 463.936C169.008 466.51 174.21 467.158 174.21 468.976C174.21 469.912 172.842 470.56 169.044 470.272ZM194.74 472.072L196.828 471.928C195.874 468.22 194.884 464.548 193.786 460.822H190.924C189.808 464.548 188.836 468.292 187.882 472H189.934C190.186 470.974 190.42 469.93 190.672 468.904H193.984C194.236 469.966 194.488 471.028 194.74 472.072ZM192.256 462.514H192.4C192.814 464.116 193.228 465.754 193.624 467.392H191.032C191.428 465.754 191.842 464.134 192.256 462.514ZM204.439 472.054L206.707 471.946L203.557 466.42L206.725 460.84H204.511L202.351 464.998L200.083 460.786L197.815 460.894L200.965 466.438L197.815 472H200.011L202.171 467.878L204.439 472.054ZM213.183 462.442H215.757V460.84H208.539V462.442H211.113V470.398H208.539V472H215.703L215.847 470.398H213.183V462.442ZM218.526 470.272V472.126C223.908 472.342 225.834 470.488 225.834 468.724C225.834 466.06 220.632 465.322 220.632 463.648C220.632 462.838 221.532 462.352 225.15 462.604L225.042 460.75C220.398 460.498 218.49 462.262 218.49 463.936C218.49 466.51 223.692 467.158 223.692 468.976C223.692 469.912 222.324 470.56 218.526 470.272Z" fill="#60A3F2"/>
<line x1="55.5" y1="436.5" x2="302.5" y2="436.5" stroke="#FFD500" stroke-width="3" stroke-linecap="round"/>
<rect x="103" y="425" width="150" height="22" fill="#0E141B"/>
<path d="M121.978 442V438.922C125.074 438.472 127.324 437.14 127.324 434.386C127.324 431.452 124.786 430.174 119.35 430.84V442H121.978ZM124.75 434.926C124.75 436.582 123.832 437.05 121.978 436.78V432.874C123.814 432.712 124.75 433.396 124.75 434.926ZM134.79 442.162L137.634 441.838L135.042 437.014C136.068 436.276 136.788 435.358 136.788 433.99C136.788 431.65 135.06 430.174 129.138 430.84V442H131.748V438.4L132.99 438.364L134.79 442.162ZM131.748 432.856C133.368 432.676 134.196 433.27 134.196 434.584C134.196 435.394 133.818 436.078 133.188 436.528L131.748 436.564V432.856ZM144.093 432.874H146.469V430.84H139.071V432.874H141.447V439.966H139.071V442H146.397L146.577 439.966H144.093V432.874ZM154.331 430.84L152.693 436.672H152.621L150.965 430.84H148.625V442H150.965L150.821 435.772H150.893L151.955 439.516H153.233L154.295 435.772H154.367L154.223 442H156.653V430.84H154.331ZM164.516 442.09L167.198 441.91C166.316 438.202 165.416 434.548 164.372 430.84H160.718C159.674 434.548 158.774 438.292 157.892 442H160.538C160.718 441.082 160.916 440.164 161.114 439.228H163.94C164.138 440.2 164.336 441.154 164.516 442.09ZM162.446 432.964H162.608C162.914 434.386 163.238 435.862 163.544 437.32H161.51C161.816 435.862 162.122 434.386 162.446 432.964ZM174.376 442.162L177.22 441.838L174.628 437.014C175.654 436.276 176.374 435.358 176.374 433.99C176.374 431.65 174.646 430.174 168.724 430.84V442H171.334V438.4L172.576 438.364L174.376 442.162ZM171.334 432.856C172.954 432.676 173.782 433.27 173.782 434.584C173.782 435.394 173.404 436.078 172.774 436.528L171.334 436.564V432.856ZM183.679 442V438.274L187.153 430.84H184.435L182.419 435.808L180.295 430.786L177.505 430.894L181.015 438.328V442H183.679ZM204.102 442.09L206.784 441.91C205.902 438.202 205.002 434.548 203.958 430.84H200.304C199.26 434.548 198.36 438.292 197.478 442H200.124C200.304 441.082 200.502 440.164 200.7 439.228H203.526C203.724 440.2 203.922 441.154 204.102 442.09ZM202.032 432.964H202.194C202.5 434.386 202.824 435.862 203.13 437.32H201.096C201.402 435.862 201.708 434.386 202.032 432.964ZM213.764 442.054L216.698 441.946L213.692 436.456L216.716 430.84H213.89L212.162 434.548L210.29 430.786L207.374 430.894L210.38 436.42L207.392 442H210.2L211.928 438.346L213.764 442.054ZM223.265 432.874H225.641V430.84H218.243V432.874H220.619V439.966H218.243V442H225.569L225.749 439.966H223.265V432.874ZM228.211 439.804V442.144C233.809 442.288 235.735 440.398 235.735 438.562C235.735 435.916 230.893 435.196 230.893 433.792C230.893 433.108 231.667 432.838 235.015 433.072L234.871 430.732C230.191 430.498 228.121 432.37 228.121 434.134C228.121 436.69 232.963 437.284 232.963 438.868C232.963 439.66 231.721 440.038 228.211 439.804Z" fill="#FFD500"/>
<path d="M163.9 58.536V60.096C167.632 60.192 168.916 58.932 168.916 57.708C168.916 55.944 165.688 55.464 165.688 54.528C165.688 54.072 166.204 53.892 168.436 54.048L168.34 52.488C165.22 52.332 163.84 53.58 163.84 54.756C163.84 56.46 167.068 56.856 167.068 57.912C167.068 58.44 166.24 58.692 163.9 58.536ZM173.798 54.024H175.766V52.56H170.102L169.982 54.024H172.022V60H173.798V54.024ZM180.815 60.06L182.603 59.94C182.015 57.468 181.415 55.032 180.719 52.56H178.283C177.587 55.032 176.987 57.528 176.399 60H178.163C178.283 59.388 178.415 58.776 178.547 58.152H180.431C180.563 58.8 180.695 59.436 180.815 60.06ZM179.435 53.976H179.543C179.747 54.924 179.963 55.908 180.167 56.88H178.811C179.015 55.908 179.219 54.924 179.435 53.976ZM187.389 60.108L189.285 59.892L187.557 56.676C188.241 56.184 188.721 55.572 188.721 54.66C188.721 53.1 187.569 52.116 183.621 52.56V60H185.361V57.6L186.189 57.576L187.389 60.108ZM185.361 53.904C186.441 53.784 186.993 54.18 186.993 55.056C186.993 55.596 186.741 56.052 186.321 56.352L185.361 56.376V53.904ZM193.591 54.024H195.559V52.56H189.895L189.775 54.024H191.815V60H193.591V54.024Z" fill="#FFD500"/>
<path d="M9.848 243.04L11.084 243.04C11.228 239.452 9.992 238.168 8.816 238.168C7.04 238.168 6.548 241.636 5.432 241.636C4.892 241.636 4.568 241.036 4.736 238.624L3.5 238.696C3.332 241.792 4.508 243.064 5.624 243.064C7.34 243.064 7.772 239.596 8.984 239.596C9.608 239.596 10.04 240.508 9.848 243.04ZM4.712 233.394L4.712 231.27L3.56 231.27L3.56 236.874L4.712 236.97L4.712 234.786L11 234.786L11 233.394L4.712 233.394ZM11.048 225.909L10.952 224.517C8.48 225.153 6.032 225.813 3.548 226.545L3.548 228.453C6.032 229.197 8.528 229.845 11 230.481L11 229.113C10.316 228.945 9.62 228.789 8.936 228.621L8.936 226.413C9.644 226.245 10.352 226.077 11.048 225.909ZM4.676 227.565L4.676 227.469C5.744 227.193 6.836 226.917 7.928 226.653L7.928 228.381C6.836 228.117 5.756 227.841 4.676 227.565ZM11.108 219.335L10.928 217.859L7.712 219.611C7.208 218.915 6.56 218.399 5.624 218.399C4.076 218.399 3.092 219.551 3.572 223.235L11 223.235L11 221.879L8.432 221.879L8.408 220.703L11.108 219.335ZM4.616 221.879C4.424 220.427 4.94 219.755 5.924 219.755C6.572 219.755 7.1 220.079 7.436 220.571L7.472 221.879L4.616 221.879ZM4.712 213.601L4.712 211.477L3.56 211.477L3.56 217.081L4.712 217.177L4.712 214.993L11 214.993L11 213.601L4.712 213.601Z" fill="#60A3F2"/>
<path d="M351.848 232.028L351.848 235.364L349.76 235.364L349.76 232.568L348.752 232.568L348.752 235.364L346.712 235.364L346.712 232.1L345.56 232.1L345.56 236.744L353 236.744L353 232.136L351.848 232.028ZM353 226.703L353 225.527L345.56 225.527L345.56 226.799L350.468 226.739L350.468 226.787L345.56 229.175L345.56 230.471L353 230.471L353 229.199L348.032 229.247L348.032 229.187L353 226.703ZM349.136 218.605C346.232 218.605 345.056 219.973 345.56 223.801L353 223.801C353.504 220.213 352.04 218.605 349.136 218.605ZM349.34 219.997C351.332 219.997 352.184 220.621 351.92 222.445L346.616 222.445C346.412 220.597 347.348 219.997 349.34 219.997Z" fill="#60A3F2"/>
<path d="M173.916 399.548H170.82V397.904H173.364V396.632H170.82V395.012H173.832V393.56H169.056V401H173.784L173.916 399.548ZM179.074 401H180.502V393.56H178.882L178.954 397.7H178.906L176.842 393.56H175.306V401H176.926L176.854 396.86H176.914L179.074 401ZM187.387 397.148C187.387 394.196 186.007 393.056 181.975 393.56V401C185.827 401.504 187.387 400.016 187.387 397.148ZM185.599 397.376C185.599 399.164 185.263 399.836 183.703 399.62V394.904C185.227 394.748 185.599 395.648 185.599 397.376Z" fill="#FFD500"/>
<line x1="336.879" y1="227" x2="329" y2="219.121" stroke="#60A3F2" stroke-width="3" stroke-linecap="round" stroke-dasharray="0.01 5"/>
<line x1="21.5" y1="212.5" x2="21.5" y2="241.5" stroke="#60A3F2" stroke-width="3" stroke-linecap="round" stroke-dasharray="0.01 5"/>
<line x1="337" y1="227.121" x2="329.121" y2="235" stroke="#60A3F2" stroke-width="3" stroke-linecap="round" stroke-dasharray="0.01 5"/>
</svg>
